Coordinates
version=1
nRows=24
nColumns=24
inDegrees=yes

Units are S.I. units (second, meters, Newtons, ...)
If the header above contains a line with 'inDegrees', this indicates whether rotational values are in degrees (yes) or radians (no).

endheader
time	pelvis_tilt	pelvis_list	pelvis_rotation	pelvis_tx	pelvis_ty	pelvis_tz	hip_flexion_r	hip_adduction_r	hip_rotation_r	knee_angle_r	ankle_angle_r	subtalar_angle_r	mtp_angle_r	hip_flexion_l	hip_adduction_l	hip_rotation_l	knee_angle_l	ankle_angle_l	subtalar_angle_l	mtp_angle_l	lumbar_extension	lumbar_bending	lumbar_rotation
      0.00000000	     10.14899779	      2.64806594	   -178.76087401	      0.22720210	      0.85086494	     -1.20554468	     15.20078985	     -9.19333958	    -33.95114361	     -9.75291548	     -0.06260362	     13.31530572	      0.00000000	     15.84505624	    -14.72603905	    -29.81899188	     -9.11962763	      0.22013660	     19.38864806	      0.00000000	      3.73378196	      2.11549577	     -3.42299366
      0.00500000	     10.14845548	      2.65216511	   -178.76139621	      0.22721540	      0.85088765	     -1.20554279	     15.20389683	     -9.19003079	    -33.95683082	     -9.75489149	     -0.05927579	     13.31267277	      0.00000000	     15.84533692	    -14.73128196	    -29.81831469	     -9.11601807	      0.21879455	     19.38905077	      0.00000000	      3.73210210	      2.10914635	     -3.42162669
      0.01000000	     10.14432850	      2.64510379	   -178.73114831	      0.22723617	      0.85085748	     -1.20555526	     15.19843064	     -9.21718593	    -34.05217813	     -9.78037247	     -0.18419024	     13.25731188	      0.00000000	     15.84351314	    -14.71694224	    -29.79326703	     -9.09863914	      0.20798164	     19.41381053	      0.00000000	      3.76175580	      2.21190373	     -3.09786009
      0.01500000	     10.15011100	      2.60760457	   -178.70176501	      0.22723861	      0.85079912	     -1.20558615	     15.16656243	     -9.23884218	    -33.99535724	     -9.69022031	     -0.14979155	     13.27611563	      0.00000000	     15.87157323	    -14.68725830	    -29.77561127	     -9.13386945	      0.21342604	     19.42684861	      0.00000000	      3.77314989	      2.15960825	     -3.14252512
      0.02000000	     10.15263074	      2.59633929	   -178.69070419	      0.22723864	      0.85079128	     -1.20559181	     15.16773109	     -9.25112006	    -33.97723507	     -9.69480070	     -0.14689086	     13.26666135	      0.00000000	     15.86941618	    -14.66951584	    -29.77554950	     -9.12238567	      0.22570170	     19.43590508	      0.00000000	      3.76921308	      2.15312868	     -3.20240787
      0.02500000	     10.14872134	      2.60270825	   -178.68956201	      0.22725495	      0.85079027	     -1.20555783	     15.16861301	     -9.24784324	    -33.99163855	     -9.70292213	     -0.13479717	     13.24859554	      0.00000000	     15.86754365	    -14.67452930	    -29.76683993	     -9.12771143	      0.21467146	     19.43796206	      0.00000000	      3.77629684	      2.14026141	     -3.14125224
      0.03000000	     10.15632412	      2.64063629	   -178.71811092	      0.22723767	      0.85083442	     -1.20553572	     15.19810743	     -9.21838497	    -34.03162061	     -9.75937784	     -0.17756413	     13.22736251	      0.00000000	     15.86095566	    -14.71434263	    -29.78152461	     -9.10970485	      0.18995980	     19.40964540	      0.00000000	      3.78987256	      2.19543798	     -3.08728584
      0.03500000	     10.15641341	      2.62047938	   -178.70802407	      0.22726265	      0.85083612	     -1.20558695	     15.18894044	     -9.22592433	    -34.03064319	     -9.71715250	     -0.14696460	     13.22486345	      0.00000000	     15.86750068	    -14.69645867	    -29.77673916	     -9.12041730	      0.18498495	     19.40878876	      0.00000000	      3.80589870	      2.20137783	     -3.08005652
      0.04000000	     10.16072286	      2.62940970	   -178.70147879	      0.22724484	      0.85078973	     -1.20556040	     15.18902256	     -9.22126653	    -34.02739931	     -9.71978325	     -0.14811167	     13.22644246	      0.00000000	     15.87061489	    -14.70139459	    -29.77620755	     -9.11810106	      0.18695718	     19.40816336	      0.00000000	      3.80012481	      2.17646082	     -3.08239860
      0.04500000	     10.17437752	      2.61653405	   -178.67685410	      0.22726569	      0.85080809	     -1.20552667	     15.19933388	     -9.24639551	    -34.05320768	     -9.73618347	     -0.20858115	     13.21401569	      0.00000000	     15.89785772	    -14.68164124	    -29.75356025	     -9.13072000	      0.20440233	     19.41668431	      0.00000000	      3.81464453	      2.16949977	     -3.13022241
      0.05000000	     10.17759899	      2.60872087	   -178.66130961	      0.22726326	      0.85077422	     -1.20553697	     15.18739306	     -9.24615388	    -34.05147469	     -9.69398984	     -0.16834532	     13.21210755	      0.00000000	     15.90736864	    -14.67272140	    -29.74741542	     -9.13617571	      0.20354637	     19.41815161	      0.00000000	      3.82614060	      2.14879716	     -3.12020366
      0.05500000	     10.17686690	      2.62706006	   -178.66411302	      0.22727971	      0.85081444	     -1.20550594	     15.19917142	     -9.23745590	    -34.06098136	     -9.73897537	     -0.18464121	     13.20619043	      0.00000000	     15.90261365	    -14.68528830	    -29.73782895	     -9.11943980	      0.20148575	     19.41949491	      0.00000000	      3.82611350	      2.16693779	     -3.09995747
      0.06000000	     10.17281211	      2.62145272	   -178.66531241	      0.22728845	      0.85083577	     -1.20552932	     15.19545341	     -9.23949695	    -34.06380538	     -9.73815349	     -0.18268886	     13.20492182	      0.00000000	     15.89967970	    -14.68298693	    -29.73686816	     -9.12151406	      0.19949815	     19.41903937	      0.00000000	      3.83830578	      2.18157215	     -3.09475733
      0.06500000	     10.17319179	      2.62888909	   -178.67004789	      0.22727956	      0.85081666	     -1.20554093	     15.18919177	     -9.22803984	    -34.08365545	     -9.72672751	     -0.16997214	     13.20079026	      0.00000000	     15.89610564	    -14.69107483	    -29.73801277	     -9.12301396	      0.19203978	     19.40567146	      0.00000000	      3.84722377	      2.18446003	     -3.06247760
      0.07000000	     10.17081227	      2.60665866	   -178.65934215	      0.22729464	      0.85073754	     -1.20558111	     15.16943054	     -9.24004222	    -34.06045948	     -9.67793769	     -0.14181854	     13.21535972	      0.00000000	     15.89959866	    -14.67187478	    -29.74112438	     -9.13440094	      0.19861225	     19.39461393	      0.00000000	      3.84681174	      2.16358914	     -3.10520497
      0.07500000	     10.17041172	      2.60476216	   -178.65866802	      0.22729099	      0.85070994	     -1.20560448	     15.16991858	     -9.23909288	    -34.06039412	     -9.67819239	     -0.14206193	     13.21538556	      0.00000000	     15.89889458	    -14.67154130	    -29.74094746	     -9.13481507	      0.19857526	     19.39460010	      0.00000000	      3.84708130	      2.16419565	     -3.10544214
      0.08000000	     10.16898088	      2.61339517	   -178.66017372	      0.22727580	      0.85077355	     -1.20557167	     15.18021420	     -9.24516904	    -34.08614511	     -9.72129919	     -0.19878462	     13.20368443	      0.00000000	     15.89127190	    -14.67291356	    -29.72981801	     -9.11892781	      0.18600853	     19.38257988	      0.00000000	      3.84993352	      2.18071967	     -3.09957800
      0.08500000	     10.17083866	      2.62243282	   -178.68019438	      0.22727865	      0.85082166	     -1.20553538	     15.20241915	     -9.23983071	    -34.10345208	     -9.75263235	     -0.21678361	     13.19512393	      0.00000000	     15.88276927	    -14.67943616	    -29.72992476	     -9.10473660	      0.18538319	     19.37809649	      0.00000000	      3.85155655	      2.20222343	     -3.07153074
      0.09000000	     10.17699796	      2.62828571	   -178.68593093	      0.22724679	      0.85079839	     -1.20546719	     15.20874288	     -9.23937553	    -34.10156689	     -9.75527009	     -0.22620747	     13.20432753	      0.00000000	     15.89096088	    -14.68626927	    -29.71482100	     -9.11407662	      0.19240298	     19.37701847	      0.00000000	      3.85906720	      2.19337158	     -3.02195605
      0.09500000	     10.17000622	      2.59519877	   -178.66374654	      0.22727906	      0.85076202	     -1.20553974	     15.17926888	     -9.25691625	    -34.04059213	     -9.69455980	     -0.17999415	     13.22304617	      0.00000000	     15.89401979	    -14.65274052	    -29.72784987	     -9.12975567	      0.20713041	     19.36609915	      0.00000000	      3.85898729	      2.15550097	     -3.07242269
      0.10000000	     10.16822877	      2.59400468	   -178.65815699	      0.22729483	      0.85072481	     -1.20558191	     15.17642156	     -9.25533573	    -34.03745948	     -9.69400133	     -0.18090614	     13.22350648	      0.00000000	     15.89562938	    -14.65486392	    -29.72736210	     -9.13122399	      0.20951402	     19.36585980	      0.00000000	      3.85884446	      2.14499314	     -3.07318175
      0.10500000	     10.16690266	      2.59159546	   -178.66338907	      0.22727908	      0.85071594	     -1.20555353	     15.17536030	     -9.25780925	    -34.03733755	     -9.69215126	     -0.18010283	     13.22231455	      0.00000000	     15.89359576	    -14.65158898	    -29.72598271	     -9.13388289	      0.21094355	     19.36666753	      0.00000000	      3.86142622	      2.14978674	     -3.07322198
      0.11000000	     10.16353976	      2.60102107	   -178.69462280	      0.22727454	      0.85074052	     -1.20553410	     15.18709278	     -9.24685418	    -34.02022785	     -9.70867426	     -0.15382274	     13.21331542	      0.00000000	     15.87077129	    -14.65935835	    -29.73249204	     -9.11106551	      0.22113909	     19.34395576	      0.00000000	      3.85945583	      2.16906959	     -3.01872132
      0.11500000	     10.16382420	      2.60202908	   -178.71378343	      0.22725413	      0.85076178	     -1.20551662	     15.19132895	     -9.24482434	    -34.03071702	     -9.70848364	     -0.13781523	     13.20300813	      0.00000000	     15.86287418	    -14.66249126	    -29.74553619	     -9.10969630	      0.20449979	     19.32521381	      0.00000000	      3.86461290	      2.18689421	     -3.00490696
